<svg xmlns="http://www.w3.org/2000/svg" viewBox="0 0 24 24" fill="none" stroke="#bbb" stroke-width="1.5" stroke-linecap="round" stroke-linejoin="round">
  <path d="M6 2h8l6 6v12a2 2 0 0 1-2 2H6a2 2 0 0 1-2-2V4a2 2 0 0 1 2-2z"/>
  <polyline points="14 2 14 8 20 8"/>
  <text x="12" y="17.5" text-anchor="middle" font-size="6.5" font-weight="700" font-family="system-ui,sans-serif" fill="#bbb" stroke="none">XMP</text>
  <path d="M2.5 8A7 7 0 0 1 9 4" stroke-width="1.8"/>
  <polyline points="9 2 9 4 7 4"/>
  <path d="M2.5 6A7 7 0 0 0 1 10" stroke-width="1.8"/>
  <polyline points="1 10 3 10 1 12"/>
</svg>
